<?xml version="1.0" standalone="no"?>
<!DOCTYPE svg PUBLIC "-//W3C//DTD SVG 20010904//EN"
 "http://www.w3.org/TR/2001/REC-SVG-20010904/DTD/svg10.dtd">
<svg version="1.0" xmlns="http://www.w3.org/2000/svg"
 width="512.000000pt" height="512.000000pt" viewBox="0 0 512.000000 512.000000"
 preserveAspectRatio="xMidYMid meet">
<metadata>
Created by potrace 1.16, written by Peter Selinger 2001-2019
</metadata>
<g transform="translate(0.000000,512.000000) scale(0.100000,-0.100000)"
fill="#D2B142" stroke="none">
<path d="M2380 5044 c-183 -50 -335 -171 -419 -334 -80 -154 -75 -64 -78
-1279 l-4 -1084 -182 179 c-149 147 -195 187 -254 217 -198 103 -438 103 -636
0 -105 -54 -221 -173 -275 -280 -103 -208 -96 -453 20 -651 24 -42 237 -262
818 -842 845 -845 832 -834 985 -883 101 -32 309 -32 410 0 153 49 140 37 985
883 832 831 825 824 877 972 35 98 43 253 18 362 -39 180 -175 358 -332 439
-199 103 -438 103 -636 0 -59 -30 -105 -70 -254 -217 l-183 -179 0 1031 c0
1080 -2 1131 -44 1249 -69 187 -228 343 -416 405 -86 28 -316 36 -400 12z
m280 -240 c142 -33 249 -129 307 -274 17 -42 18 -126 23 -1298 l5 -1254 33
-29 c26 -23 42 -29 78 -29 25 0 55 5 67 11 12 6 150 139 307 295 235 234 295
287 341 308 207 95 455 4 553 -203 29 -61 31 -74 31 -176 0 -185 60 -112 -829
-1003 -841 -843 -810 -816 -953 -843 -49 -9 -77 -9 -125 0 -144 28 -104 -7
-949 839 -895 895 -834 822 -834 1007 0 103 2 114 32 177 100 212 352 299 563
196 56 -27 106 -73 356 -320 288 -285 292 -288 333 -288 23 0 55 7 71 15 64
33 60 -46 60 1292 0 1000 3 1227 14 1269 49 186 217 318 411 323 22 0 69 -6
105 -15z"/>
</g>
</svg>
